<svg xmlns="http://www.w3.org/2000/svg" width="1080" height="1080" viewBox="0 0 1080 1080">
  <rect width="1080" height="1080" fill="#008080"/>
  <rect x="60" y="90" width="960" height="840" fill="#000"/>
  <rect x="60" y="90" width="958" height="838" fill="#fff"/>
  <rect x="62" y="92" width="956" height="836" fill="#808080"/>
  <rect x="62" y="92" width="954" height="834" fill="#C0C0C0"/>
  <defs><linearGradient id="tb" x1="0" x2="1"><stop offset="0" stop-color="#000080"/><stop offset="1" stop-color="#1084D0"/></linearGradient></defs>
  <rect x="72" y="102" width="936" height="56" fill="url(#tb)"/>
  <rect x="86" y="114" width="30" height="32" fill="#FFD400" stroke="#000" stroke-width="2"/><path d="M92 124 h18 M92 131 h18 M92 138 h12" stroke="#000" stroke-width="2"/>
  <text x="128" y="140" font-family="Press Start 2P" font-size="22" fill="#fff">НОВОЕ_В_БЛОГЕ.TXT</text>
  <g font-family="Press Start 2P" font-size="20" fill="#000">
    <rect x="874" y="110" width="40" height="40" fill="#C0C0C0" stroke="#000" stroke-width="2"/><text x="884" y="140">_</text>
    <rect x="918" y="110" width="40" height="40" fill="#C0C0C0" stroke="#000" stroke-width="2"/><text x="928" y="142">□</text>
    <rect x="962" y="110" width="40" height="40" fill="#C0C0C0" stroke="#000" stroke-width="2"/><text x="972" y="142">×</text>
  </g>
  <rect x="86" y="176" width="908" height="660" fill="#FFFBEA" stroke="#808080" stroke-width="3"/>
  <text font-family="Press Start 2P" font-size="54" fill="#000080"><tspan x="130" y="300">НЕ ИДЁТ</tspan><tspan x="130" y="380">ВВЕДЕНИЕ?</tspan></text>
  <rect x="130" y="430" width="220" height="12" fill="#FFD400"/>
  <g font-family="Tiny5" font-size="44">
    <text x="130" y="560" fill="#000">план глав</text>
    <text x="130" y="616" fill="#000080">→ цель и задачи</text>
    <text x="130" y="672" fill="#000080">→ объект и предмет</text>
    <text x="130" y="728" fill="#000080">→ актуальность</text>
  </g>
  <text font-family="Tiny5" font-size="44" fill="#3A3A3A"><tspan x="130" y="800">Порядок, который работает.</tspan></text>
  <rect x="86" y="852" width="908" height="56" fill="#C0C0C0" stroke="#808080" stroke-width="2"/>
  <text x="110" y="890" font-family="JetBrains Mono" font-weight="700" font-size="28" fill="#000">studyassist.ru</text>
  <text x="970" y="890" text-anchor="end" font-family="JetBrains Mono" font-size="26" fill="#3A3A3A">#курсовая</text>
</svg>
